Coordinates
version=1
nRows=15
nColumns=34
inDegrees=yes

Units are S.I. units (second, meters, Newtons, ...)
If the header above contains a line with 'inDegrees', this indicates whether rotational values are in degrees (yes) or radians (no).

endheader
time	pelvis_tilt	pelvis_list	pelvis_rotation	pelvis_tx	pelvis_ty	pelvis_tz	hip_flexion_r	hip_adduction_r	hip_rotation_r	knee_angle_r	ankle_angle_r	subtalar_angle_r	mtp_angle_r	hip_flexion_l	hip_adduction_l	hip_rotation_l	knee_angle_l	ankle_angle_l	subtalar_angle_l	mtp_angle_l	lumbar_extension	lumbar_bending	lumbar_rotation	arm_flex_r	arm_add_r	arm_rot_r	elbow_flex_r	pro_sup_r	arm_flex_l	arm_add_l	arm_rot_l	elbow_flex_l	pro_sup_l
      9.00000000	     -3.33734854	     -7.80597187	    -60.82124653	      4.78066325	      1.58029129	     12.92071392	     18.34643620	     -1.56248016	      2.64127185	     18.61771284	      0.38015328	     -5.20397092	      0.00000000	     -6.71113997	     -2.76839429	     -2.62205249	     45.86456485	     -1.63720051	     -5.45179783	      0.00000000	    -10.14221277	      2.11902269	    -12.61582540	    -20.17380562	    -21.22659317	     15.26876841	     89.95325100	    119.74817918	     15.78720407	    -18.43005391	     25.07449460	    110.25127705	    119.74817918
      9.01666670	     -3.33342921	     -8.08761949	    -61.00576359	      4.79253348	      1.58076274	     12.94807141	     18.33263281	     -0.81501049	      3.34780954	     22.29430223	      2.73928948	     -7.14129296	      0.00000000	     -3.32066426	     -3.67840797	     -2.40644323	     53.07468500	     -1.61586105	     -7.33498007	      0.00000000	    -10.33721148	      2.71802753	    -11.23496689	    -17.50162645	    -21.53076106	     16.40046198	     89.40601999	    119.74817918	     14.53572867	    -17.90059618	     25.40631440	    107.87863690	    119.74817918
      9.03333330	     -3.39328274	     -8.18626005	    -61.42939038	      4.80640114	      1.57645576	     12.97335449	     18.62736682	     -0.14693652	      3.83741925	     25.98419139	      5.66741581	     -8.32474963	      0.00000000	     -0.03887982	     -4.62689617	     -2.21194694	     58.82241775	     -0.54205876	     -8.63636293	      0.00000000	    -10.54986820	      3.70055224	     -9.80244343	    -14.05437520	    -21.42074980	     17.58890409	     88.72398770	    119.74817918	     12.84222568	    -17.51610250	     25.31652238	    104.15287720	    119.74817918
      9.05000000	     -3.39165954	     -8.36628430	    -62.11446768	      4.82002972	      1.56927639	     12.99729255	     18.83346266	      0.42576835	      4.05070650	     29.42423812	      8.68836053	     -8.80530852	      0.00000000	      2.96974872	     -5.43095059	     -2.02413709	     63.48491962	      1.04133163	     -9.63135178	      0.00000000	    -10.81386184	      4.65593096	     -8.66302351	    -10.53938096	    -20.96226079	     18.35173145	     88.39897376	    119.74817918	     11.27280228	    -17.10720551	     25.61757181	    100.15453514	    119.74817918
      9.06666670	     -3.50558463	     -8.37953175	    -62.87333179	      4.83313445	      1.55907780	     13.02009619	     19.45096982	      0.91140983	      4.07388609	     33.06959195	     11.92139993	     -8.87460714	      0.00000000	      6.64222930	     -6.16340510	     -1.77744577	     68.21975119	      2.96481435	    -10.39769697	      0.00000000	    -11.19089208	      5.59309544	     -7.30605737	     -6.98016301	    -20.44653527	     18.47611801	     88.65589241	    119.74817918	      9.76580721	    -16.63402903	     25.64577964	     96.02776816	    119.74817918
      9.08333330	     -3.64884367	     -8.34669869	    -63.66918656	      4.84566502	      1.54679948	     13.04225355	     20.16672731	      1.33510992	      4.06170718	     36.68671564	     15.20928880	     -8.73373653	      0.00000000	     10.76944662	     -6.67785380	     -1.47778045	     73.11659695	      4.83855750	    -11.02367093	      0.00000000	    -11.57564738	      6.45692433	     -5.96463082	     -3.70944936	    -19.67458432	     17.61926209	     89.51684619	    119.74817918	      8.10179881	    -16.28698385	     25.40624465	     91.99805963	    119.74817918
      9.10000000	     -3.79983700	     -8.56913027	    -64.66306720	      4.85714530	      1.53533452	     13.06514577	     20.30481547	      1.79396407	      3.92257834	     39.73105145	     18.17708800	     -8.48226900	      0.00000000	     14.38374116	     -6.97510890	     -1.40179039	     77.30550193	      6.52727412	    -11.60851006	      0.00000000	    -12.03603039	      7.21050176	     -4.45377162	     -0.77758234	    -18.83585535	     16.47723616	     91.11990737	    119.74817918	      6.05193061	    -15.81252969	     24.77503237	     88.45522949	    119.74817918
      9.11666670	     -4.00856200	     -8.58091543	    -65.44397696	      4.86849697	      1.52629289	     13.08795804	     20.19274388	      2.07252139	      3.63703369	     42.10964717	     20.63555516	     -7.85474913	      0.00000000	     17.96897343	     -7.06499324	     -1.14130190	     80.41907715	      8.23584935	    -11.94783744	      0.00000000	    -12.42941867	      8.07212337	     -1.79228064	      2.59124086	    -18.03077359	     16.50765232	     92.34214523	    119.74817918	      3.97246404	    -15.45117778	     24.62459119	     86.37553486	    119.74817918
      9.13333330	     -4.19094610	     -8.58842098	    -66.02415334	      4.87598761	      1.52013859	     13.11196924	     19.69619037	      2.29543652	      3.23188565	     44.06464805	     22.77322282	     -7.35677450	      0.00000000	     21.52066928	     -6.97750579	     -0.72267564	     83.21572489	      9.84206082	    -12.12456689	      0.00000000	    -12.78362470	      8.24898631	      0.98585193	      5.56812979	    -17.62281886	     16.88009690	     93.82776580	    119.74817918	      1.92022973	    -15.30535732	     23.92961560	     84.75417590	    119.74817918
      9.15000000	     -3.83933471	     -8.93243886	    -66.14490619	      4.88356432	      1.52161776	     13.13635511	     17.69493814	      2.22785948	      3.09099247	     44.36241272	     23.81535162	     -7.54222203	      0.00000000	     24.87517733	     -6.35496767	      0.16270459	     84.99862584	     10.77536207	    -12.49849808	      0.00000000	    -13.62997837	      7.52585530	      3.67222924	      8.31103991	    -17.54834518	     16.66373228	     94.97460769	    119.74817918	      0.49251148	    -15.96626810	     23.42827528	     83.81974897	    119.74817918
      9.16666670	     -4.38205056	     -8.65545998	    -66.76598696	      4.89053694	      1.53172974	     13.16347669	     15.71633042	      2.50604652	      2.54175355	     42.81365359	     24.10306079	     -6.01335860	      0.00000000	     28.33661281	     -6.21106893	      0.54295212	     85.01031020	     11.44651326	    -12.56346855	      0.00000000	    -13.12642500	      7.68571746	      6.01010281	     10.32592845	    -17.96894270	     16.83689972	     96.22217634	    119.74817918	     -2.81946207	    -16.59384067	     21.67811738	     83.78685568	    119.74817918
      9.18333330	     -4.51859075	     -8.68597818	    -66.94131594	      4.89776188	      1.54799337	     13.18913400	     12.63548804	      2.59528722	      2.02243423	     39.96845591	     22.86407992	     -5.46521658	      0.00000000	     30.44504298	     -5.83452969	      0.79734838	     82.83479370	     11.21182749	    -13.14721137	      0.00000000	    -12.90537293	      7.62089231	      8.03103562	     12.11885529	    -18.13040490	     16.44189968	     97.86842219	    119.74817918	     -5.76205352	    -17.47869400	     20.30891715	     83.08657492	    119.74817918
      9.20000000	     -4.44764460	     -9.07087224	    -66.85664845	      4.90514000	      1.57094307	     13.21499443	      8.23047090	      2.66034886	      1.44782980	     35.24921686	     19.67441887	     -5.01312788	      0.00000000	     31.08397639	     -5.57189366	      0.47547501	     77.00805959	      9.92322259	    -14.10717852	      0.00000000	    -12.66651010	      7.55030009	      9.98747299	     13.07949572	    -17.89330371	     14.77737592	     99.53628741	    119.74817918	     -9.21438759	    -17.91479105	     18.98060269	     82.80276746	    119.74817918
      9.21666670	     -4.21108743	     -9.32506449	    -66.59918293	      4.91322884	      1.59470933	     13.24315345	      3.41378797	      2.50439848	      0.59958633	     29.63372908	     15.11204174	     -4.17453924	      0.00000000	     30.96611750	     -5.11447254	     -0.05485266	     68.98803549	      8.08479206	    -14.57679819	      0.00000000	    -12.35252882	      6.85546663	     11.86000105	     14.25273614	    -17.76585768	     13.63256094	    101.56648213	    119.74817918	    -12.74942666	    -18.83472833	     17.80828976	     83.96089852	    119.74817918
      9.23333330	     -3.84972663	     -9.22757571	    -66.28504131	      4.92314898	      1.61265638	     13.26851546	     -0.52576101	      1.96346847	     -0.73860346	     25.04585084	     10.35503235	     -2.84601401	      0.00000000	     30.46148162	     -4.48306812	     -0.79314744	     60.38215129	      6.48041104	    -14.11730430	      0.00000000	    -12.23573822	      6.06925540	     13.40718913	     15.87598133	    -17.75337251	     13.84126642	    103.53699069	    119.74817918	    -15.75561572	    -20.00910295	     16.92506453	     85.49851048	    119.74817918
